<svg width="32" height="32" viewBox="0 0 1600 1600" fill="none" xmlns="http://www.w3.org/2000/svg">
<style>
  .mark { fill: #0F1115; }
  .eye { fill: #E6E6E6; }
  @media (prefers-color-scheme: dark) {
    .mark { fill: #E6E6E6; }
    .eye { fill: #1C1F26; }
  }
</style>
<g transform="translate(0, 400)">
<path class="mark" d="M0 0L82.3588 202.74L358.554 345.205L161.928 304.11L306.506 463.014L677.5 628.5L645.783 701.37L800 800V235.616L711.325 304.11L0 0Z"/>
<path class="mark" d="M1600 0L1517.64 202.74L1241.45 345.205L1438.07 304.11L1293.49 463.014L922.5 628.5L954.217 701.37L800 800V235.616L888.675 304.11L1600 0Z"/>
<path class="eye" d="M768 342.273L799.714 401V325L768 342.273Z"/>
<path class="eye" d="M831.429 342.273L799.715 401V325L831.429 342.273Z"/>
</g>
</svg>
